<svg viewBox="0 0 258 30" xmlns="http://www.w3.org/2000/svg"><path d="M.5 28.7a1 1 0 0 1-.3-.7V2c0-.3 0-.5.3-.7.2-.2.4-.3.7-.3h18.4c.3 0 .5 0 .7.3.2.2.3.4.3.7v4a1 1 0 0 1-1 1H7.2v6h11.6c.3 0 .5 0 .7.2.2.2.3.5.3.8v4a1 1 0 0 1-1 1H7.2v9c0 .3 0 .5-.3.7a1 1 0 0 1-.7.3h-5a1 1 0 0 1-.7-.3zm25.2 0a1 1 0 0 1-.3-.7V2c0-.3.1-.5.3-.7.2-.2.4-.3.7-.3h5.4c.3 0 .5 0 .7.3.2.2.3.4.3.7v26c0 .3 0 .5-.3.7a1 1 0 0 1-.7.3h-5.4a1 1 0 0 1-.7-.3zm13.5 0a1 1 0 0 1-.3-.7V2c0-.3 0-.5.3-.7.2-.2.4-.3.7-.3h18.4c.3 0 .5 0 .7.3.2.2.3.4.3.7v4a1 1 0 0 1-1 1H45.9v6h11.6c.3 0 .5 0 .7.2.2.2.3.5.3.8v4a1 1 0 0 1-1 1H45.9v9c0 .3 0 .5-.3.7a1 1 0 0 1-.7.3h-5a1 1 0 0 1-.7-.3zm31.4 0a1 1 0 0 1-.3-.7V7.3H63a1 1 0 0 1-.7-.3 1 1 0 0 1-.3-.7V2c0-.3.1-.5.3-.7.2-.2.5-.3.7-.3h21.6c.2 0 .5 0 .7.3.2.2.3.4.3.7v4.3c0 .3-.1.5-.3.7a1 1 0 0 1-.8.3h-7V28a1 1 0 0 1-1 1h-5.3a1 1 0 0 1-.7-.3zm26.7 0a1 1 0 0 1-.3-.7v-8.6L87.7 2.3l-.1-.5c0-.2 0-.4.3-.5.1-.2.3-.3.6-.3h5c.5 0 1 .3 1.4.8l5.7 10.4 5.8-10.4c.3-.5.7-.8 1.3-.8h5c.3 0 .5 0 .7.3l.2.5v.5l-9.4 17.1V28c0 .3 0 .5-.3.7a1 1 0 0 1-.7.3H98a1 1 0 0 1-.7-.3zm34.5 0a1 1 0 0 1-.3-.7v-8.6l-9.3-17.1v-.5c0-.2 0-.4.2-.5.1-.2.3-.3.6-.3h5c.5 0 1 .3 1.4.8l5.7 10.4L141 1.8c.3-.5.8-.8 1.4-.8h5c.2 0 .4 0 .6.3l.2.5v.5l-9.3 17.1V28c0 .3-.1.5-.4.7a1 1 0 0 1-.7.3h-5.2a1 1 0 0 1-.7-.3zm20.6 0a1 1 0 0 1-.3-.7V2c0-.3 0-.5.3-.7.2-.2.4-.3.7-.3h18.6c.3 0 .6 0 .8.3l.2.7v3.8a1 1 0 0 1-1 1H159v5.4h11.9c.2 0 .5 0 .7.3.2.2.3.4.3.7v3.5a1 1 0 0 1-1 1h-12v5.5h13.2c.2 0 .5.1.7.3.2.2.3.4.3.7V28a1 1 0 0 1-1 1h-19a1 1 0 0 1-.7-.3zm23.5 0a.8.8 0 0 1-.2-.5v-.4l9.4-25.7c0-.3.3-.6.5-.8.3-.2.6-.3 1-.3h6c.4 0 .8.1 1 .3.3.2.5.5.5.8l9.4 25.7v.4c0 .2 0 .4-.2.5-.1.2-.3.3-.6.3h-5c-.6 0-1-.3-1.2-.8L195 24h-10.6l-1.6 4c-.2.6-.6.9-1.3.9h-4.9c-.2 0-.4 0-.6-.3zm17.5-10.4l-3.8-10.5-3.7 10.5h7.5zm14.2 10.4a1 1 0 0 1-.3-.7V2c0-.3 0-.5.3-.7.2-.2.4-.3.7-.3H219c3.5 0 6.2.8 8.2 2.4 2 1.6 3 3.8 3 6.7 0 1.9-.5 3.5-1.4 4.8-.9 1.3-2 2.3-3.6 3l5.5 9.8v.5c0 .2 0 .4-.2.5-.1.2-.3.3-.5.3h-5.4c-.7 0-1.3-.4-1.6-1l-4.6-8.9h-4V28c0 .3-.1.5-.4.7a1 1 0 0 1-.7.3h-5.2a1 1 0 0 1-.6-.3zM219 13.4c1.2 0 2.1-.3 2.8-.9.6-.6 1-1.4 1-2.5 0-1-.4-1.9-1-2.5-.7-.6-1.6-1-2.8-1h-4.7v7h4.7zm20.2 14.9a9.6 9.6 0 0 1-4-3 6.9 6.9 0 0 1-1.6-4c0-.2.1-.3.3-.5l.6-.3h5c.4 0 .6 0 .8.2l.7.5c.3.7.9 1.3 1.7 1.8a6 6 0 0 0 3 .6c1.6 0 2.7-.2 3.5-.7.8-.5 1.2-1.1 1.2-2 0-.5-.2-1-.6-1.4-.4-.4-1-.7-2-1a40 40 0 0 0-3.9-1c-3.2-.6-5.6-1.6-7.1-3a6.7 6.7 0 0 1-2.4-5.5c0-1.6.4-3 1.3-4.3a9 9 0 0 1 4-3c1.6-.7 3.5-1.1 5.8-1.1s4.3.4 6 1.2c1.7.8 3 1.8 4 3a6.6 6.6 0 0 1 1.3 3.6.8.8 0 0 1-.8.8h-5.3l-.8-.1-.5-.5c-.2-.7-.6-1.2-1.3-1.6a5 5 0 0 0-2.6-.6 5 5 0 0 0-2.8.6c-.6.4-1 1-1 1.9 0 .5.2 1 .6 1.4.4.4 1 .7 1.8 1l3.5 1c2.5.4 4.4 1 6 1.6 1.4.7 2.5 1.6 3.2 2.7.7 1 1 2.4 1 4 0 1.8-.5 3.4-1.5 4.7a9.7 9.7 0 0 1-4.3 3c-1.8.7-4 1.1-6.3 1.1a17 17 0 0 1-6.5-1.1z" fill="#1C1C1C" fill-rule="evenodd"/></svg>